<?xml version="1.0" encoding="UTF-8"?>
<svg width="180px" height="25px" viewBox="0 0 180 25" version="1.1" xmlns="http://www.w3.org/2000/svg" xmlns:xlink="http://www.w3.org/1999/xlink">
    <title>Group 19</title>
    <defs>
        <polygon id="path-1" points="0 24.9914515 179.999951 24.9914515 179.999951 0 0 0"></polygon>
    </defs>
    <g id="Symbols" stroke="none" stroke-width="1" fill="none" fill-rule="evenodd">
        <g id="Logo-/-dark" transform="translate(0.000000, -17.000000)">
            <g id="Group-19" transform="translate(-0.000000, 17.004274)">
                <polygon id="Fill-1" fill="#FFFFFF" points="18.3892447 0.149040841 18.4638758 18.7995558 18.3892447 18.7995558 6.71446079 0.149040841 0 0.149040841 0 24.6929518 4.21511892 24.6929518 4.17774191 3.87924219 4.21511892 3.87924219 17.3076474 24.6929518 22.6043636 24.6929518 22.6043636 0.149040841"></polygon>
                <g id="Group-18" transform="translate(0.000049, 0.000000)">
                    <path d="M40.846756,14.4352239 C40.846756,18.9113672 38.4967993,21.4105861 34.7665979,21.4105861 C31.7455762,21.4105861 29.9550451,19.7694401 29.9550451,16.8598117 L29.9550451,6.2665022 L25.7774262,6.2665022 L25.7774262,17.4566145 C25.7774262,22.3431672 28.7240627,24.9914023 33.5359843,24.9914023 C37.6389722,24.9914023 40.2125763,23.0516091 40.9961411,19.5454239 L41.0333952,19.5454239 C41.0333952,21.4852172 40.9587641,23.4620185 40.846756,24.693001 L45.024375,24.693001 L45.024375,6.2665022 L40.846756,6.2665022 L40.846756,14.4352239 Z" id="Fill-2" fill="#FFFFFF"></path>
                    <path d="M54.5740052,2.08887095 L51.105197,2.08887095 L50.9184349,4.84923717 C50.8067957,5.89345748 50.5454025,6.26648991 49.8368376,6.26648991 L47.4870038,6.26648991 L47.4870038,9.66078994 L50.3962633,9.66078994 L50.3962633,18.1281589 C50.3962633,22.1937698 52.3731876,24.916759 57.4090025,24.916759 C58.9380174,24.916759 60.2063769,24.6557346 60.7659255,24.4693414 L60.7659255,21.1495494 C60.2437539,21.2985657 59.0500255,21.4852049 58.0058052,21.4852049 C55.4692093,21.4852049 54.5740052,20.2915994 54.5740052,17.9043886 L54.5740052,9.66078994 L60.9151876,9.66078994 L60.9151876,6.26648991 L54.5740052,6.26648991 L54.5740052,2.08887095 Z" id="Fill-4" fill="#FFFFFF"></path>
                    <path d="M68.3011437,11.563575 L68.2633978,11.563575 L68.4132747,6.26636696 L64.235041,6.26636696 L64.235041,24.6932346 L68.4132747,24.6932346 L68.4132747,16.636521 C68.4132747,12.2351317 70.390322,9.54878185 73.5606059,9.54878185 C74.7058917,9.54878185 76.2863,9.85652746 76.8581437,10.0616092 L76.8581437,6.22222766 C76.2545787,6.05341634 75.5891695,5.9677197 74.8659735,5.9677197 C71.0618788,5.9677197 69.1592167,8.24341425 68.3011437,11.563575" id="Fill-6" fill="#FFFFFF"></path>
                    <mask id="mask-2" fill="white">
                        <use xlink:href="#path-1"></use>
                    </mask>
                    <g id="Clip-9"></g>
                    <polygon id="Fill-8" fill="#FFFFFF" mask="url(#mask-2)" points="81.5934056 4.10298788 85.8827867 4.10298788 85.8827867 0 81.5934056 0"></polygon>
                    <path d="M95.5435029,2.08887095 L92.0746947,2.08887095 L91.8879326,4.84923717 C91.7762934,5.89345748 91.5151461,6.26648991 90.8063353,6.26648991 L88.4563785,6.26648991 L88.4563785,9.66078994 L91.3658839,9.66078994 L91.3658839,18.1281589 C91.3658839,22.1937698 93.3426853,24.916759 98.3781313,24.916759 C99.9075151,24.916759 101.175875,24.6557346 101.7353,24.4693414 L101.7353,21.1495494 C101.213129,21.2985657 100.019646,21.4852049 98.975057,21.4852049 C96.438707,21.4852049 95.5435029,20.2915994 95.5435029,17.9043886 L95.5435029,9.66078994 L101.884685,9.66078994 L101.884685,6.26648991 L95.5435029,6.26648991 L95.5435029,2.08887095 Z" id="Fill-10" fill="#FFFFFF" mask="url(#mask-2)"></path>
                    <polygon id="Fill-11" fill="#FFFFFF" mask="url(#mask-2)" points="106.568751 4.10298788 110.858132 4.10298788 110.858132 0 106.568751 0"></polygon>
                    <path d="M123.077747,5.96815003 C117.221359,5.96815003 113.45415,9.62372031 113.45415,15.5171163 C113.45415,21.3732582 117.221359,24.9914515 123.077747,24.9914515 C128.971143,24.9914515 132.738476,21.3732582 132.738476,15.5171163 C132.738476,9.62372031 128.971143,5.96815003 123.077747,5.96815003 M123.077747,21.5598974 C119.683324,21.5598974 117.631769,19.2470718 117.631769,15.5171163 C117.631769,11.7495379 119.683324,9.39970413 123.077747,9.39970413 C126.471924,9.39970413 128.560734,11.7495379 128.560734,15.5171163 C128.560734,19.2470718 126.471924,21.5598974 123.077747,21.5598974" id="Fill-12" fill="#FFFFFF" mask="url(#mask-2)"></path>
                    <path d="M146.935728,5.96815003 C142.645978,5.96815003 140.258768,7.87032034 139.251555,11.1901122 L139.214547,11.1901122 L139.363563,6.26655138 L135.185944,6.26655138 L135.185944,24.6930502 L139.363563,24.6930502 L139.363563,15.7782636 C139.363563,11.7495379 141.676143,9.54896628 145.331713,9.54896628 C148.651505,9.54896628 150.292528,11.1901122 150.292528,14.0994947 L150.292528,24.6930502 L154.47027,24.6930502 L154.47027,13.1672825 C154.47027,8.61650815 151.598142,5.96815003 146.935728,5.96815003" id="Fill-13" fill="#FFFFFF" mask="url(#mask-2)"></path>
                    <polygon id="Fill-14" fill="#FFFFFF" mask="url(#mask-2)" points="81.630426 6.26653909 79.4105511 6.26653909 79.4105511 9.73141283 81.630426 9.73141283 81.630426 24.6930379 85.8081679 24.6930379 85.8081679 6.26653909 83.7381699 6.26653909"></polygon>
                    <polygon id="Fill-15" fill="#FFFFFF" mask="url(#mask-2)" points="106.605869 6.26653909 104.405052 6.26653909 104.405052 9.73141283 106.605869 9.73141283 106.605869 24.6930379 110.783611 24.6930379 110.783611 6.26653909 108.732548 6.26653909"></polygon>
                    <polygon id="Fill-16" fill="#FFFFFF" mask="url(#mask-2)" points="179.715369 0.160721158 174.582546 0.160721158 168.677224 8.87472922 173.226154 8.87472922"></polygon>
                    <polygon id="Fill-17" fill="#FFFFFF" mask="url(#mask-2)" points="162.429164 0.150085922 156.798514 0.150085922 165.648014 12.0729844 156.499867 24.6948575 161.797444 24.6948575 168.369282 15.423391 174.406038 24.6948575 179.999926 24.6948575"></polygon>
                </g>
            </g>
        </g>
    </g>
</svg>